<svg width="22" height="22" viewBox="0 0 22 22" fill="none" xmlns="http://www.w3.org/2000/svg">
<path opacity="0.4" d="M10.6022 12.6L7.70267 15.4995C7.38346 15.2158 7.07311 14.9232 6.77163 14.6217C5.85833 13.6995 5.0337 12.733 4.29774 11.7222C3.57065 10.7114 2.98543 9.70053 2.55981 8.69856C2.13419 7.68772 1.92139 6.72122 1.92139 5.79905C1.92139 5.1961 2.02779 4.61974 2.2406 4.08772C2.45341 3.54684 2.79035 3.05028 3.2603 2.60694C3.82779 2.04831 4.44848 1.77344 5.10464 1.77344C5.35291 1.77344 5.60119 1.82664 5.82286 1.93304C6.05341 2.03945 6.25735 2.19905 6.41695 2.4296L8.4741 5.3291C8.6337 5.55078 8.74897 5.75472 8.82878 5.94979C8.90858 6.136 8.95291 6.32221 8.95291 6.49068C8.95291 6.70349 8.89084 6.91629 8.76671 7.12024C8.65144 7.32418 8.48296 7.53698 8.27015 7.74979L7.59626 8.45028C7.49873 8.54782 7.45439 8.66309 7.45439 8.80497C7.45439 8.8759 7.46326 8.93797 7.48099 9.00891C7.50759 9.07984 7.53419 9.13304 7.55193 9.18624C7.71153 9.47886 7.98641 9.86014 8.37656 10.3212C8.77557 10.7823 9.20119 11.2523 9.66227 11.7222C9.98148 12.0326 10.2918 12.334 10.6022 12.6Z" fill="#083E82"/>
<path d="M19.6286 16.2533C19.6286 16.5016 19.5843 16.7587 19.4956 17.007C19.469 17.0779 19.4424 17.1488 19.407 17.2198C19.2562 17.539 19.0611 17.8405 18.804 18.1242C18.3695 18.603 17.8907 18.9488 17.3498 19.1705C17.3409 19.1705 17.3321 19.1794 17.3232 19.1794C16.8001 19.3922 16.2326 19.5075 15.6207 19.5075C14.7163 19.5075 13.7498 19.2947 12.7301 18.8602C11.7104 18.4257 10.6907 17.8405 9.67986 17.1045C9.33405 16.8474 8.98824 16.5902 8.66016 16.3154L11.5597 13.4158C11.8079 13.6021 12.0296 13.7439 12.2158 13.8415C12.2602 13.8592 12.3134 13.8858 12.3754 13.9124C12.4464 13.939 12.5173 13.9479 12.5971 13.9479C12.7478 13.9479 12.8631 13.8947 12.9606 13.7971L13.6345 13.1321C13.8562 12.9104 14.069 12.742 14.273 12.6355C14.4769 12.5114 14.6808 12.4493 14.9025 12.4493C15.071 12.4493 15.2483 12.4848 15.4434 12.5646C15.6385 12.6444 15.8424 12.7597 16.0641 12.9104L18.9991 14.9942C19.2296 15.1538 19.3892 15.34 19.4868 15.5617C19.5754 15.7833 19.6286 16.005 19.6286 16.2533Z" fill="#083E82"/>
</svg>
