<svg width="22" height="22" viewBox="0 0 22 22" fill="none" xmlns="http://www.w3.org/2000/svg">
<path d="M19.6164 18.4079L18.978 17.7695C19.306 17.2729 19.5011 16.67 19.5011 16.0315C19.5011 14.2759 18.0824 12.8572 16.3267 12.8572C14.5711 12.8572 13.1523 14.2759 13.1523 16.0315C13.1523 17.7872 14.5711 19.2059 16.3267 19.2059C16.974 19.2059 17.5681 19.0109 18.0647 18.6828L18.7031 19.3212C18.8272 19.4454 18.9957 19.5074 19.1553 19.5074C19.3238 19.5074 19.4834 19.4454 19.6075 19.3212C19.8647 19.0641 19.8647 18.6562 19.6164 18.4079Z" fill="#083E82"/>
<path opacity="0.4" d="M2.09537 12.9723C2.09537 12.9989 2.07764 13.0344 2.07764 13.061C2.8934 14.6925 4.22346 16.0314 5.85499 16.8383C5.88159 16.8383 5.91705 16.8206 5.94365 16.8206C5.64217 15.792 5.41163 14.7368 5.24316 13.6816C4.17912 13.5043 3.12395 13.2738 2.09537 12.9723Z" fill="#083E82"/>
<path opacity="0.4" d="M17.2049 5.70136C16.3714 3.95457 14.9616 2.54472 13.2236 1.72009C13.5428 2.77527 13.8089 3.85704 13.9862 4.93882C15.068 5.11616 16.1497 5.37329 17.2049 5.70136Z" fill="#083E82"/>
<path opacity="0.4" d="M2.00684 5.70149C3.07088 5.38227 4.15266 5.11628 5.23444 4.93894C5.41178 3.88376 5.63344 2.83746 5.93492 1.80889C5.90832 1.80889 5.87285 1.79114 5.84625 1.79114C4.17925 2.61577 2.8226 4.00789 2.00684 5.70149Z" fill="#083E82"/>
<path opacity="0.4" d="M12.5498 4.75292C12.337 3.60021 12.071 2.44752 11.6897 1.33028C11.672 1.26821 11.672 1.21501 11.6631 1.14408C11.0069 0.984472 10.3153 0.878052 9.60596 0.878052C8.88773 0.878052 8.20497 0.975605 7.53995 1.14408C7.53108 1.20615 7.53994 1.25934 7.52221 1.33028C7.1498 2.44752 6.87492 3.60021 6.66211 4.75292C8.62172 4.54012 10.5902 4.54012 12.5498 4.75292Z" fill="#083E82"/>
<path opacity="0.4" d="M5.04821 6.3667C3.88664 6.57951 2.74279 6.84552 1.62555 7.2268C1.56348 7.24453 1.51027 7.24453 1.43934 7.2534C1.27973 7.90956 1.17334 8.60119 1.17334 9.31055C1.17334 10.0288 1.27087 10.7115 1.43934 11.3765C1.50141 11.3854 1.55462 11.3766 1.62555 11.3943C2.74279 11.7667 3.88664 12.0416 5.04821 12.2544C4.8354 10.2948 4.8354 8.32631 5.04821 6.3667Z" fill="#083E82"/>
<path opacity="0.4" d="M17.7632 7.2534C17.7011 7.2534 17.6479 7.24453 17.577 7.2268C16.4597 6.85439 15.307 6.57951 14.1543 6.3667C14.376 8.32631 14.376 10.2948 14.1543 12.2455C15.307 12.0327 16.4597 11.7667 17.577 11.3854C17.639 11.3677 17.6922 11.3766 17.7632 11.3677C17.9228 10.7027 18.0292 10.0199 18.0292 9.30167C18.0292 8.60118 17.9316 7.91842 17.7632 7.2534Z" fill="#083E82"/>
<path opacity="0.4" d="M6.66211 13.868C6.87492 15.0296 7.14093 16.1734 7.52221 17.2907C7.53994 17.3528 7.53108 17.406 7.53995 17.4769C8.20497 17.6365 8.88773 17.7429 9.60596 17.7429C10.3153 17.7429 11.0069 17.6454 11.6631 17.4769C11.672 17.4148 11.672 17.3616 11.6897 17.2907C12.0621 16.1734 12.337 15.0296 12.5498 13.868C11.5744 13.9744 10.5902 14.0542 9.60596 14.0542C8.62172 14.0454 7.63748 13.9744 6.66211 13.868Z" fill="#083E82"/>
<path opacity="0.4" d="M6.4583 6.16264C6.19229 8.25525 6.19229 10.3656 6.4583 12.4671C8.55091 12.7331 10.6613 12.7331 12.7627 12.4671C13.0287 10.3745 13.0287 8.26412 12.7627 6.16264C10.6613 5.89663 8.55091 5.89663 6.4583 6.16264Z" fill="#083E82"/>
</svg>
