<svg width="22" height="22" viewBox="0 0 22 22" fill="none" xmlns="http://www.w3.org/2000/svg">
<path opacity="0.58" d="M21.2808 0H0V21.2808H21.2808V0Z" fill="white"/>
<path opacity="0.4" d="M6.15382 18.2926C7.47501 19.064 9.00899 19.5073 10.6405 19.5073C15.6326 19.5073 19.7824 15.1004 19.4898 10.1172C19.1883 4.97434 14.5154 1.01079 9.13312 1.89749C5.42672 2.50931 2.45628 5.51522 1.87993 9.22162C1.54298 11.3674 1.98635 13.398 2.95285 15.0738L2.16368 18.0088C1.98634 18.6738 2.59814 19.2768 3.2543 19.0906L6.15382 18.2926Z" fill="#083E82"/>
<path d="M15.074 13.4512C15.074 13.6108 15.0386 13.7792 14.9588 13.9388C14.8789 14.0984 14.7814 14.2492 14.6573 14.3911C14.4356 14.6305 14.1962 14.8078 13.9302 14.9142C13.6642 15.0295 13.3715 15.0827 13.0612 15.0827C12.609 15.0827 12.1213 14.9763 11.6159 14.7546C11.1016 14.5329 10.5962 14.2403 10.0908 13.8768C9.57649 13.5044 9.09766 13.0876 8.63658 12.6354C8.1755 12.1743 7.76765 11.6866 7.39523 11.1812C7.03169 10.6758 6.73904 10.1704 6.52623 9.66495C6.31342 9.15953 6.20703 8.67184 6.20703 8.21076C6.20703 7.90928 6.26023 7.61667 6.36663 7.35066C6.47303 7.07578 6.64152 6.8275 6.88093 6.60583C7.16468 6.32209 7.475 6.18909 7.80308 6.18909C7.92722 6.18909 8.05139 6.21568 8.16666 6.26889C8.28193 6.32209 8.3883 6.40189 8.4681 6.51716L9.48783 7.98022C9.56763 8.09549 9.62971 8.19302 9.66518 8.29056C9.70952 8.3881 9.7272 8.47677 9.7272 8.56544C9.7272 8.67185 9.69175 8.77824 9.62968 8.88465C9.56761 8.99105 9.48783 9.09746 9.38143 9.20386L9.04448 9.55854C8.99128 9.61174 8.97353 9.66495 8.97353 9.73588C8.97353 9.77135 8.98241 9.80682 8.99128 9.84228C9.00901 9.87775 9.01786 9.90435 9.02673 9.93095C9.10653 10.0817 9.24843 10.2679 9.44351 10.4984C9.64745 10.729 9.86024 10.9684 10.0908 11.1989C10.3302 11.4383 10.5607 11.6512 10.8001 11.8551C11.0307 12.0502 11.2258 12.1832 11.3765 12.263C11.4031 12.2718 11.4297 12.2896 11.4563 12.2984C11.4917 12.3162 11.5272 12.3162 11.5716 12.3162C11.6514 12.3162 11.7046 12.2896 11.7578 12.2364L12.0947 11.8994C12.21 11.7842 12.3164 11.7044 12.4139 11.6512C12.5203 11.5891 12.6179 11.5536 12.7331 11.5536C12.8218 11.5536 12.9105 11.5713 13.008 11.6157C13.1055 11.66 13.212 11.7132 13.3184 11.793L14.7903 12.8393C14.9055 12.9191 14.9854 13.0167 15.0386 13.1231C15.0474 13.2206 15.074 13.327 15.074 13.4512Z" fill="#083E82"/>
</svg>
